<!-- Generated by IcoMoon.io -->
<svg version="1.1" xmlns="http://www.w3.org/2000/svg" width="48" height="48" viewBox="0 0 48 48">
<title>x</title>
<path xmlns="http://www.w3.org/2000/svg" style="fill:#e5e5e5;" d="M26.799999,24 l7.95,-7.95 c0.6,-0.6 0.6,-1.5 0,-2.1 s-1.5,-0.6 -2.1,0 l-7.95,7.95 l-7.95,-7.95 c-0.6,-0.6 -1.5,-0.6 -2.1,0 s-0.6,1.5 0,2.1 l7.95,7.95 l-7.95,7.95 c-0.6,0.6 -0.6,1.5 0,2.1 c0.3,0.3 0.6,0.45 1.05,0.45 s0.75,-0.15 1.05,-0.45 l7.95,-7.95 l7.95,7.95 c0.3,0.3 0.75,0.45 1.05,0.45 s0.75,-0.15 1.05,-0.45 c0.6,-0.6 0.6,-1.5 0,-2.1 l-7.95,-7.95"/>
</svg>
